<svg xmlns="http://www.w3.org/2000/svg" xmlns:xlink="http://www.w3.org/1999/xlink" width="149" height="148" viewBox="0 0 149 148"><defs><path id="f8jca" d="M1178.253 3911.301l-70.818-51.817-70.817 51.817z"/><path id="f8jcb" d="M1042.375 4001.119v-89.818h130.12v89.818z"/><path id="f8jcc" d="M1056.193 4001.119v-76h102.484v76"/><path id="f8jcd" d="M1133.218 4001.119h-21.623a4.157 4.157 0 0 1-4.157-4.157v-21.622a4.157 4.157 0 0 1 4.157-4.157h21.623a4.157 4.157 0 0 1 4.157 4.157v21.622a4.159 4.159 0 0 1-4.157 4.157z"/><path id="f8jce" d="M1103.278 4001.119h-21.622a4.157 4.157 0 0 1-4.157-4.157v-21.622a4.157 4.157 0 0 1 4.157-4.157h21.622a4.157 4.157 0 0 1 4.157 4.157v21.622a4.159 4.159 0 0 1-4.157 4.157z"/><path id="f8jcf" d="M1118.248 3971.18h-21.622a4.157 4.157 0 0 1-4.157-4.157V3945.4a4.157 4.157 0 0 1 4.157-4.157h21.622a4.157 4.157 0 0 1 4.157 4.157v21.623a4.159 4.159 0 0 1-4.157 4.157z"/><path id="f8jcg" d="M1169.617 3998.24h-8.06v-73.12a2.88 2.88 0 0 0-2.88-2.88h-68.995a2.88 2.88 0 0 0 0 5.758h66.117v70.242h-15.664c.078-.414.118-.843.118-1.278v-21.622c0-3.881-3.158-7.039-7.035-7.039h-8.052c.077-.415.118-.843.118-1.278V3945.4c0-3.88-3.158-7.038-7.036-7.038h-21.622c-3.88 0-7.039 3.158-7.039 7.038v21.623c0 .437.043.863.118 1.278h-8.052c-3.88 0-7.036 3.158-7.036 7.039v21.622c0 .438.044.864.118 1.278h-15.663v-70.242h8.636a2.88 2.88 0 0 0 0-5.757h-11.515a2.88 2.88 0 0 0-2.878 2.879v73.12h-8.061v-84.06h124.363zm-69.13-24.181l-8.021 8.02-8.02-8.02zm6.948-21.92l-8.02-8.02h16.038zm14.97 29.94l-8.02-8.02h16.037zm12.09-3.95v16.038l-8.02-8.018zm-12.09 12.091l8.02 8.02h-16.037zm-17.848-12.09v16.037l-8.02-8.018zm5.757 16.04v-16.038l8.02 8.017zm9.212-45.98v16.038l-8.02-8.018zm-12.09 12.09l8.02 8.021h-16.038zm-4.071-4.07l-8.02 8.02v-16.037zm-10.9 34.01l8.021 8.02h-16.038zm-4.07-4.07l-8.02 8.02v-16.038zm19.04-123.1l43.516 31.842h-21.78a2.88 2.88 0 0 0 0 5.758h29.648l10.625 7.773h-124.017zm72.52 45.928l-70.818-51.818a2.881 2.881 0 0 0-3.4 0l-70.818 51.818a2.88 2.88 0 0 0-1.036 3.219 2.875 2.875 0 0 0 2.735 1.983h2.878v86.939a2.88 2.88 0 0 0 2.88 2.879h130.12a2.88 2.88 0 0 0 2.878-2.879v-86.939h2.88c1.246 0 2.348-.8 2.737-1.983a2.88 2.88 0 0 0-1.037-3.219z"/><path id="f8jch" d="M1078.743 3927.998a2.9 2.9 0 0 0 2.035-.843 2.888 2.888 0 0 0 .843-2.036c0-.757-.305-1.5-.843-2.035a2.895 2.895 0 0 0-2.035-.843 2.9 2.9 0 0 0-2.036.843 2.9 2.9 0 0 0-.843 2.036c0 .757.308 1.5.843 2.035a2.9 2.9 0 0 0 2.036.843z"/><path id="f8jci" d="M1119.045 3894.892c-.757 0-1.5.306-2.035.841a2.907 2.907 0 0 0-.843 2.038c0 .757.308 1.5.843 2.035a2.9 2.9 0 0 0 2.035.844 2.9 2.9 0 0 0 2.036-.844 2.893 2.893 0 0 0 .843-2.035 2.9 2.9 0 0 0-.843-2.038 2.898 2.898 0 0 0-2.036-.84z"/></defs><g><g transform="translate(-1033 -3856)"><g><use fill="#e6e9ed" xlink:href="#f8jca"/></g><g><use fill="#005c82" xlink:href="#f8jcb"/></g><g><use fill="#fff" xlink:href="#f8jcc"/></g><g><use fill="#776d62" xlink:href="#f8jcd"/></g><g><use fill="#776d62" xlink:href="#f8jce"/></g><g><use fill="#776d62" xlink:href="#f8jcf"/></g><g><use xlink:href="#f8jcg"/></g><g><use xlink:href="#f8jch"/></g><g><use xlink:href="#f8jci"/></g></g></g></svg>