<svg xmlns="http://www.w3.org/2000/svg" xmlns:xlink="http://www.w3.org/1999/xlink" width="245" height="144" viewBox="0 0 245 144"><defs><path id="jj4nd" d="M586.267 4009.645h-66.685v-3.7a2.6 2.6 0 0 1 2.6-2.6h61.487a2.6 2.6 0 0 1 2.6 2.6v3.7z"/><path id="jj4ne" d="M583.584 4003.345h-13.126a2.679 2.679 0 0 1 2.68 2.678v3.622h13.126v-3.622a2.675 2.675 0 0 0-2.68-2.678z"/><path id="jj4nf" d="M523.007 4003.345l16.912-10.18h25.895l17.022 10.18z"/><path id="jj4ng" d="M571.437 4003.345h11.402l-17.023-10.18h-25.895l-10.467 6.3h27.937a27.37 27.37 0 0 1 14.046 3.88z"/><path id="jj4nh" d="M519.582 3909.286h66.685v3.7a2.6 2.6 0 0 1-2.6 2.6h-61.488a2.6 2.6 0 0 1-2.6-2.6v-3.7z"/><path id="jj4ni" d="M572.621 3909.286v3.622a2.68 2.68 0 0 1-2.683 2.678h13.646a2.679 2.679 0 0 0 2.68-2.678v-3.622z"/><path id="jj4nj" d="M582.839 3915.586l-16.912 10.182h-25.895l-17.025-10.182z"/><path id="jj4nk" d="M523.007 3915.586l4.407 2.638h33.079c3.016 0 4.12 3.965 1.537 5.52l-3.362 2.024h7.257l16.911-10.182z"/><path id="jj4nl" d="M580.075 3997.16h-54.301a1.908 1.908 0 0 1-1.909-1.905v-72.046a1.91 1.91 0 0 1 1.909-1.908h54.301c1.053 0 1.906.855 1.906 1.908v72.046a1.906 1.906 0 0 1-1.906 1.905z"/><path id="jj4nm" d="M586.43 3930.014l-4.86 4.856a1.554 1.554 0 0 1-1.104.457c-.401 0-.8-.151-1.105-.457a1.557 1.557 0 0 1 0-2.206l4.861-4.854c.611-.608 1.6-.608 2.211 0a1.556 1.556 0 0 1-.002 2.204zm3.906-5.833a6.278 6.278 0 0 0-9.138.282l-63.267 71.57c-.272.31.157.739.467.464l71.657-63.19a6.262 6.262 0 0 0 .28-9.126z"/><path id="jj4na" d="M516.275 4011.402V3907.69h77.45v103.71z"/><path id="jj4no" d="M539.348 3959.215l-1.25 7.558h23.056l4.862-7.558z"/><path id="jj4nq" d="M589.05 3932.17l-28.948 25.531h-6.263l28.498-32.233a4.758 4.758 0 0 1 6.934-.215 4.712 4.712 0 0 1 1.393 3.358 4.76 4.76 0 0 1-1.613 3.559zm-63.276 63.476a.392.392 0 0 1-.392-.394v-2.895l1.588-1.4h53.499v4.295a.394.394 0 0 1-.394.394zm51.583 6.184H538.99a1.514 1.514 0 1 0 0 3.029h44.677c.598 0 1.085.487 1.085 1.085v2.186h-63.658v-2.186c0-.598.487-1.085 1.085-1.085h9.943a1.516 1.516 0 0 0 0-3.029h-3.663l5.238-3.155h38.387zM525.38 3983.4h1.696l-1.696 1.918zm37.776-40.812H525.38v-4.526h41.777zm-6.679 7.557H525.38v-4.528h35.098zm-31.097 7.557v-4.528h28.416l-4.003 4.528zm44.437-4.528h10.652v4.528H564.68zm-34.278 30.226h44.93v4.53h-50.064zm-10.16-7.557h8.376l-4 4.528h-4.373zm15.057-7.555l-4 4.526H525.38v-4.528h15.056zm4.044 0h3.617l-16.41 14.47zm35.989 7.555v4.528h-41.494l5.134-4.528h5.518a1.516 1.516 0 0 0 0-3.03h-2.083l5.134-4.527h27.79v4.528h-23.81a1.516 1.516 0 0 0 0 3.029zm-19.794-15.112h19.794v4.528h-55.09v-4.528h35.296zm17.709-15.114h2.082v4.528h-7.216zm-52.61-22.798h54.301c.167 0 .308.103.366.25a6.14 6.14 0 0 0-.376.393l-3.546 4.014h-37.17a1.514 1.514 0 1 0 0 3.029h34.489l-4.003 4.528H525.38v-4.53h5.934a1.514 1.514 0 1 0 0-3.03h-5.934v-4.266c0-.214.177-.388.394-.388zm2.718-5.717h48.895l-4.463 2.685h-39.939zm-7.398-4.115v-2.186h63.656v2.186c0 .598-.487 1.086-1.086 1.086H522.18a1.087 1.087 0 0 1-1.085-1.086zm70.312 10.124a7.783 7.783 0 0 0-8.433-1.71 3.416 3.416 0 0 0-2.898-1.611H578.8l4.463-2.688h.406a4.12 4.12 0 0 0 4.115-4.115v-3.7c0-.836-.677-1.515-1.515-1.515h-66.69c-.835 0-1.514.68-1.514 1.515v3.7a4.12 4.12 0 0 0 4.114 4.115h.41l4.492 2.688h-1.307a3.423 3.423 0 0 0-3.42 3.42v65.534l-5.559 6.287c-.653.74-.62 1.825.076 2.524.364.366.836.55 1.305.55.432 0 .866-.153 1.222-.466l2.955-2.605v.224a3.427 3.427 0 0 0 3.42 3.423h2.055l-5.24 3.155h-.406a4.118 4.118 0 0 0-4.114 4.114v3.7c0 .836.676 1.515 1.514 1.515h66.685c.838 0 1.514-.679 1.514-1.514v-3.7a4.118 4.118 0 0 0-4.114-4.115h-.41l-5.274-3.155h2.09a3.427 3.427 0 0 0 3.422-3.423v-54.15l7.557-6.666a7.773 7.773 0 0 0 2.633-5.833 7.702 7.702 0 0 0-2.28-5.497z"/><path id="jj4nr" d="M584.255 3927.84l-4.862 4.855c-.59.59-.593 1.55-.002 2.143a1.52 1.52 0 0 0 2.143.003l4.861-4.857a1.514 1.514 0 0 0-2.14-2.143z"/><path id="jj4ns" d="M378.399 3899.723v-7.841h23.527v7.84z"/><path id="jj4nt" d="M429.31 3988c.725 7.508-4.86 13.664-12.41 13.664h-53.462c-7.55 0-13.135-6.156-12.41-13.664l4.98-51.853c12.37 27.093 39.66 45.914 71.4 45.914.448 0 .9 0 1.334-.017z"/><path id="jj4nu" d="M422.135 3913.387l6.607 68.657c-.43.017-.882.017-1.334.017-31.74 0-59.03-18.821-71.4-45.914v-.022l2.196-22.742c.704-7.508 7.487-13.664 15.038-13.664h33.855c7.55.004 14.312 6.16 15.038 13.668z"/><path id="jj4nv" d="M414.293 3913.387l6.58 68.387c2.159.175 4.334.287 6.538.287.449 0 .9 0 1.335-.017l-6.611-68.66c-.726-7.509-7.488-13.665-15.038-13.665h-7.841c7.55.004 14.312 6.16 15.037 13.668z"/><path id="jj4nw" d="M429.31 3988l-.568-5.96c-.43.018-.882.018-1.334.018-2.204 0-4.376-.112-6.538-.287l.028.27.567 5.96c.726 7.507-4.86 13.663-12.41 13.663h7.842c7.553 0 13.138-6.156 12.413-13.664z"/><path id="jj4nx" d="M368.596 4009.505v-7.84h43.13v7.84z"/><path id="jj4ny" d="M403.884 4009.505v-7.84h7.841v7.84z"/><path id="jj4nz" d="M394.081 3899.723v-7.841h7.841v7.84z"/><path id="jj4nA" d="M422.643 3920.545c-.2 0-.4-.028-.596-.095-7.34-2.34-12.27-9.095-12.27-16.807 0-1.145.112-2.294.33-3.412a1.961 1.961 0 0 1 3.847.757 13.73 13.73 0 0 0-.26 2.655c0 5.999 3.833 11.25 9.54 13.076a1.96 1.96 0 0 1-.591 3.826z"/><path id="jj4nB" d="M423.43 3928.789c-.108 0-.22-.01-.332-.028-12.266-2.092-21.165-12.655-21.165-25.118 0-1.426.119-2.855.354-4.246a1.962 1.962 0 0 1 3.868.652 21.547 21.547 0 0 0-.298 3.594c0 10.546 7.53 19.484 17.903 21.257a1.955 1.955 0 0 1 1.601 2.26 1.965 1.965 0 0 1-1.93 1.629z"/><path id="jj4nC" d="M424.212 3936.809c-.066 0-.13-.004-.2-.01-17.055-1.732-29.92-15.984-29.92-33.156 0-1.394.087-2.795.259-4.162a1.964 1.964 0 0 1 2.186-1.703 1.96 1.96 0 0 1 1.703 2.19 29.845 29.845 0 0 0-.228 3.679c0 15.153 11.348 27.731 26.396 29.255a1.964 1.964 0 0 1 1.756 2.148 1.965 1.965 0 0 1-1.952 1.759z"/><path id="jj4nD" d="M424.973 3944.737c-.043 0-.081-.003-.123-.003-21.645-1.331-38.6-19.379-38.6-41.09 0-1.374.067-2.761.204-4.117a1.974 1.974 0 0 1 2.144-1.756 1.958 1.958 0 0 1 1.755 2.145 37.618 37.618 0 0 0-.182 3.727c0 19.645 15.339 35.972 34.92 37.177a1.96 1.96 0 0 1-.118 3.917z"/><path id="jj4nE" d="M425.73 3952.62c-.025 0-.046 0-.07-.003-26.495-.928-47.25-22.44-47.25-48.974 0-1.37.055-2.743.168-4.085.087-1.075.998-1.916 2.116-1.79a1.957 1.957 0 0 1 1.79 2.116 45.864 45.864 0 0 0-.15 3.76c0 24.41 19.09 44.201 43.465 45.06a1.959 1.959 0 0 1-.07 3.917z"/><path id="jj4nF" d="M426.483 3960.486h-.035c-30.815-.515-55.883-26.01-55.883-56.843 0-1.355.045-2.718.143-4.046a1.946 1.946 0 0 1 2.096-1.815 1.958 1.958 0 0 1 1.814 2.095 53.607 53.607 0 0 0-.13 3.77c0 28.705 23.338 52.446 52.03 52.922a1.958 1.958 0 0 1-.035 3.917z"/><path id="jj4nG" d="M427.418 3968.338h-.182c-35.572-.098-64.512-29.122-64.512-64.695 0-.392.003-.78.01-1.173.025-1.083.999-1.948 2-1.92a1.963 1.963 0 0 1 1.92 2c-.006.365-.01.726-.01 1.093 0 33.418 27.185 60.683 60.599 60.774 1.082.004 2.046.88 2.046 1.962-.004 1.083-.788 1.959-1.871 1.959z"/><path id="jj4nH" d="M427.418 3976.179c-35.218 0-65.251-25.118-71.41-59.726a1.962 1.962 0 0 1 1.586-2.274 1.959 1.959 0 0 1 2.274 1.587c5.827 32.734 34.234 56.492 67.55 56.492l.55-.003h.021a1.96 1.96 0 0 1 .021 3.92z"/><path id="jj4nI" d="M427.418 3984.02c-31.441 0-60.168-18.482-73.187-47.082a1.96 1.96 0 0 1 3.567-1.625c12.385 27.205 39.71 44.786 69.62 44.786.431 0 .862-.003 1.286-.01 1.146-.088 1.976.844 1.997 1.923a1.965 1.965 0 0 1-1.924 1.997c-.451.007-.903.011-1.359.011z"/><path id="jj4nJ" d="M356.845 3952.656c-.838 0-1.675-.06-2.495-.176a1.962 1.962 0 0 1 .554-3.885 13.727 13.727 0 0 0 7.813-1.18 1.96 1.96 0 0 1 1.678 3.541 17.408 17.408 0 0 1-7.55 1.7z"/><path id="jj4nK" d="M356.845 3960.497c-1.073 0-2.152-.067-3.21-.204a1.958 1.958 0 0 1-1.699-2.19 1.957 1.957 0 0 1 2.19-1.699c4.614.586 9.397-.364 13.422-2.67a1.97 1.97 0 0 1 2.677.73c.536.938.21 2.137-.729 2.676a25.48 25.48 0 0 1-12.651 3.357z"/><path id="jj4nL" d="M356.845 3968.338c-1.325 0-2.656-.077-3.952-.231a1.959 1.959 0 0 1-1.717-2.176 1.95 1.95 0 0 1 2.175-1.717c1.146.133 2.316.203 3.494.203a29.283 29.283 0 0 0 16.207-4.86c.9-.598 2.117-.353 2.72.554.598.904.35 2.12-.554 2.716a33.22 33.22 0 0 1-18.373 5.51z"/><path id="jj4nM" d="M356.845 3976.179c-1.574 0-3.147-.088-4.685-.263a1.958 1.958 0 0 1-1.724-2.169c.123-1.072 1.045-1.874 2.17-1.723 1.39.157 2.816.238 4.242.238 8.139 0 15.872-2.575 22.36-7.449a1.963 1.963 0 0 1 2.744.389 1.96 1.96 0 0 1-.39 2.743c-7.178 5.389-15.724 8.234-24.717 8.234z"/><path id="jj4nN" d="M356.845 3984.02c-1.812 0-3.64-.102-5.435-.298a1.96 1.96 0 0 1-1.734-2.165c.123-1.076 1.076-1.836 2.165-1.734a45.132 45.132 0 0 0 34.083-10.343 1.96 1.96 0 1 1 2.534 2.992 49.05 49.05 0 0 1-31.613 11.548z"/><path id="jj4nO" d="M356.845 3991.865c-2.029 0-4.075-.109-6.083-.323a1.965 1.965 0 0 1-1.744-2.158c.115-1.08 1.058-1.867 2.158-1.741 1.87.2 3.777.301 5.669.301 13.6 0 26.526-5.143 36.392-14.484a1.96 1.96 0 1 1 2.694 2.848c-10.598 10.031-24.48 15.557-39.086 15.557z"/><path id="jj4nb" d="M349 4011.467V3889.92h82.339v121.547z"/><path id="jj4nP" d="M356.845 3999.706c-.929 0-1.847-.018-2.765-.06a1.96 1.96 0 0 1-1.874-2.043c.045-1.082.956-1.937 2.042-1.874.859.035 1.728.056 2.597.056 16.933 0 32.646-6.78 44.247-19.095a1.96 1.96 0 1 1 2.855 2.688c-12.353 13.107-29.083 20.328-47.102 20.328z"/><path id="jj4nQ" d="M380.112 4003.626c-.813 0-1.57-.504-1.85-1.314a1.955 1.955 0 0 1 1.206-2.494c11.649-4.06 22.02-11.233 29.987-20.742a1.96 1.96 0 1 1 3.003 2.523c-8.423 10.048-19.386 17.627-31.705 21.922-.206.07-.427.105-.64.105z"/><path id="jj4nR" d="M398.198 4003.626a1.965 1.965 0 0 1-1.037-3.63 76.375 76.375 0 0 0 21.134-19.466 1.958 1.958 0 1 1 3.146 2.333 80.33 80.33 0 0 1-22.213 20.462 1.9 1.9 0 0 1-1.03.301z"/><path id="jj4nT" d="M411.624 4003.626a1.958 1.958 0 0 1-1.247-3.472 84.522 84.522 0 0 0 16.785-18.611 1.963 1.963 0 0 1 3.269 2.169 88.493 88.493 0 0 1-17.567 19.473c-.36.294-.802.441-1.24.441z"/><path id="jj4nV" d="M373.235 3901.681c-6.584 0-12.456 5.333-13.086 11.888l-7.172 74.624c-.295 3.076.627 5.966 2.603 8.142 1.976 2.176 4.765 3.374 7.855 3.374h53.472c3.09 0 5.88-1.195 7.855-3.37 1.976-2.173 2.901-5.067 2.604-8.143l-7.176-74.627c-.63-6.555-6.5-11.888-13.086-11.888zm43.672 101.945h-53.472c-4.208 0-8.03-1.653-10.756-4.653-2.73-3.002-4.012-6.961-3.605-11.152l7.175-74.623c.816-8.514 8.437-15.434 16.99-15.434h33.865c8.549 0 16.17 6.924 16.99 15.434l7.175 74.623c.402 4.19-.876 8.153-3.606 11.152-2.729 3-6.548 4.653-10.756 4.653z"/><path id="jj4nW" d="M378.41 3901.681a1.959 1.959 0 0 1-1.963-1.962v-7.837c0-1.086.876-1.962 1.962-1.962 1.083 0 1.962.876 1.962 1.962v7.84a1.963 1.963 0 0 1-1.962 1.96z"/><path id="jj4nX" d="M401.933 3893.84h-23.524a1.959 1.959 0 0 1-1.962-1.962c0-1.086.876-1.962 1.962-1.962h23.527a1.961 1.961 0 1 1-.003 3.924z"/><path id="jj4nY" d="M401.933 3901.681a1.959 1.959 0 0 1-1.962-1.962v-7.837c0-1.086.876-1.962 1.962-1.962 1.082 0 1.962.876 1.962 1.962v7.84a1.958 1.958 0 0 1-1.962 1.96z"/><path id="jj4nZ" d="M407.104 3901.681h-33.87a1.959 1.959 0 0 1-1.961-1.962c0-1.086.875-1.962 1.962-1.962H407.1c1.086 0 1.962.876 1.962 1.962a1.958 1.958 0 0 1-1.959 1.962z"/><path id="jj4naa" d="M411.736 4011.467a1.959 1.959 0 0 1-1.962-1.962v-7.84c0-1.087.876-1.963 1.962-1.963 1.082 0 1.962.876 1.962 1.962v7.841c0 1.086-.88 1.962-1.962 1.962z"/><path id="jj4nab" d="M411.736 4011.467h-43.13a1.959 1.959 0 0 1-1.962-1.962c0-1.086.876-1.962 1.962-1.962h43.13a1.961 1.961 0 1 1 0 3.924z"/><path id="jj4nac" d="M368.606 4011.467a1.959 1.959 0 0 1-1.962-1.962v-7.84c0-1.087.876-1.963 1.962-1.963 1.083 0 1.962.876 1.962 1.962v7.841a1.963 1.963 0 0 1-1.962 1.962z"/><path id="jj4nad" d="M437.511 3880.38v-9.205h27.617v9.206z"/><path id="jj4nae" d="M497.278 3984.012c.852 8.814-5.704 16.04-14.568 16.04h-62.758c-8.864 0-15.42-7.226-14.568-16.04l5.845-60.871c14.522 31.805 46.557 53.898 83.817 53.898.526 0 1.058 0 1.565-.023z"/><path id="jj4naf" d="M488.855 3896.422l7.756 80.597c-.507.02-1.036.02-1.565.02-37.26 0-69.295-22.093-83.817-53.898v-.023l2.578-26.696c.828-8.815 8.791-16.041 17.652-16.041h39.744c8.86 0 16.8 7.226 17.652 16.04z"/><path id="jj4nag" d="M479.65 3896.422l7.723 80.277c2.535.208 5.087.34 7.673.34.526 0 1.058 0 1.565-.023l-7.756-80.597c-.852-8.812-8.791-16.038-17.652-16.038h-9.205c8.86 0 16.8 7.226 17.651 16.04z"/><path id="jj4nah" d="M497.278 3984.012l-.667-6.996c-.507.023-1.036.023-1.565.023-2.586 0-5.138-.132-7.673-.34l.032.32.668 6.996c.851 8.814-5.705 16.04-14.568 16.04h9.205c8.86-.002 15.422-7.229 14.568-16.043z"/><path id="jj4nai" d="M426.004 4009.258v-9.205h50.63v9.205z"/><path id="jj4naj" d="M467.43 4009.258v-9.205h9.205v9.205z"/><path id="jj4nak" d="M455.922 3880.38v-9.205h9.206v9.206z"/><path id="jj4nal" d="M489.45 3904.824c-.233 0-.466-.034-.699-.109-8.615-2.747-14.403-10.678-14.403-19.731 0-1.347.13-2.696.388-4.008a2.293 2.293 0 0 1 2.704-1.812 2.3 2.3 0 0 1 1.812 2.704 16.111 16.111 0 0 0-.302 3.116 16.05 16.05 0 0 0 11.2 15.347 2.297 2.297 0 0 1 1.49 2.891 2.296 2.296 0 0 1-2.19 1.602z"/><path id="jj4nam" d="M490.374 3914.505c-.13 0-.259-.012-.388-.035-14.398-2.454-24.847-14.858-24.847-29.486 0-1.675.138-3.352.415-4.986.212-1.251 1.375-2.085 2.649-1.887a2.3 2.3 0 0 1 1.887 2.653 25.47 25.47 0 0 0-.348 4.22c0 12.378 8.84 22.87 21.015 24.95a2.302 2.302 0 1 1-.383 4.571z"/><path id="jj4nan" d="M491.295 3923.917c-.078 0-.156-.005-.236-.011-20.025-2.031-35.125-18.762-35.125-38.922 0-1.637.1-3.283.305-4.888.155-1.26 1.306-2.146 2.569-2a2.301 2.301 0 0 1 1.999 2.57 34.736 34.736 0 0 0-.268 4.318c0 17.786 13.323 32.553 30.989 34.34a2.306 2.306 0 0 1 2.06 2.522 2.309 2.309 0 0 1-2.293 2.071z"/><path id="jj4nao" d="M492.186 3933.224c-.049 0-.095-.003-.144-.006-25.41-1.562-45.31-22.75-45.31-48.234 0-1.614.08-3.242.238-4.83.126-1.269 1.268-2.175 2.517-2.063a2.301 2.301 0 0 1 2.063 2.517 44.216 44.216 0 0 0-.216 4.376c0 23.06 18.005 42.227 40.993 43.64a2.304 2.304 0 0 1 2.158 2.44 2.306 2.306 0 0 1-2.299 2.16z"/><path id="jj4nap" d="M493.075 3942.478c-.029 0-.054 0-.083-.003-31.103-1.09-55.466-26.345-55.466-57.491 0-1.608.063-3.22.198-4.793.104-1.263 1.174-2.25 2.483-2.103a2.297 2.297 0 0 1 2.1 2.483 54.443 54.443 0 0 0-.179 4.413c0 28.655 22.413 51.89 51.028 52.894a2.301 2.301 0 0 1-.08 4.6z"/><path id="jj4naq" d="M493.958 3951.712h-.04c-36.169-.604-65.598-30.533-65.598-66.728 0-1.591.055-3.193.167-4.753a2.282 2.282 0 0 1 2.457-2.131 2.299 2.299 0 0 1 2.131 2.46 62.467 62.467 0 0 0-.155 4.424c0 33.698 27.398 61.567 61.076 62.125a2.303 2.303 0 0 1 2.264 2.342 2.3 2.3 0 0 1-2.302 2.261z"/><path id="jj4nar" d="M495.06 3960.93h-.213c-41.761-.116-75.732-34.185-75.732-75.946 0-.46.005-.918.014-1.378.026-1.269 1.17-2.287 2.35-2.253a2.305 2.305 0 0 1 2.253 2.35c-.009.426-.015.852-.015 1.284 0 39.23 31.912 71.233 71.139 71.342 1.271.006 2.402 1.033 2.4 2.305-.004 1.268-.927 2.295-2.196 2.295z"/><path id="jj4nas" d="M495.06 3970.135c-41.347 0-76.601-29.487-83.83-70.115a2.3 2.3 0 0 1 1.864-2.666 2.296 2.296 0 0 1 2.666 1.864c6.838 38.424 40.188 66.314 79.3 66.314l.647-.003h.023a2.3 2.3 0 1 1 .023 4.603z"/><path id="jj4nat" d="M495.06 3979.34c-36.908 0-70.63-21.693-85.916-55.27a2.299 2.299 0 1 1 4.186-1.907c14.541 31.94 46.617 52.575 81.73 52.575.506 0 1.01-.006 1.51-.015 1.347-.103 2.32.99 2.342 2.261a2.303 2.303 0 0 1-2.261 2.342c-.526.009-1.062.014-1.59.014z"/><path id="jj4nau" d="M412.21 3942.518a20.7 20.7 0 0 1-2.928-.207 2.304 2.304 0 0 1-1.953-2.606 2.313 2.313 0 0 1 2.603-1.953 16.119 16.119 0 0 0 9.174-1.387 2.301 2.301 0 1 1 1.973 4.16 20.492 20.492 0 0 1-8.869 1.993z"/><path id="jj4nav" d="M412.21 3951.724c-1.257 0-2.525-.078-3.765-.236a2.3 2.3 0 1 1 .575-4.565c5.414.684 11.03-.43 15.756-3.133a2.311 2.311 0 0 1 3.141.854 2.305 2.305 0 0 1-.854 3.141 29.93 29.93 0 0 1-14.853 3.939z"/><path id="jj4naw" d="M412.21 3960.93a39.36 39.36 0 0 1-4.637-.271 2.305 2.305 0 0 1-2.017-2.555 2.29 2.29 0 0 1 2.555-2.016c1.343.155 2.721.236 4.1.236 6.8 0 13.379-1.974 19.023-5.705a2.297 2.297 0 0 1 3.19.65 2.301 2.301 0 0 1-.65 3.19 38.982 38.982 0 0 1-21.564 6.47z"/><path id="jj4nax" d="M412.21 3970.135c-1.846 0-3.693-.104-5.5-.31a2.298 2.298 0 0 1-2.025-2.547c.144-1.26 1.225-2.198 2.546-2.025 1.634.184 3.308.279 4.98.279 9.553 0 18.632-3.02 26.247-8.745a2.308 2.308 0 0 1 3.222.457 2.303 2.303 0 0 1-.458 3.222c-8.42 6.326-18.451 9.669-29.012 9.669z"/><path id="jj4nc" d="M403.002 4011.56v-142.686h96.658v142.686z"/><path id="jj4naz" d="M412.21 3979.34c-2.128 0-4.272-.118-6.38-.348a2.303 2.303 0 0 1-2.037-2.54c.144-1.263 1.26-2.155 2.54-2.037 1.94.216 3.918.325 5.877.325 12.491 0 24.614-4.427 34.133-12.464a2.296 2.296 0 0 1 3.242.273c.82.972.699 2.425-.273 3.242-10.348 8.737-23.526 13.55-37.102 13.55z"/><path id="jj4naB" d="M412.21 3988.546c-2.382 0-4.784-.127-7.14-.377a2.3 2.3 0 0 1-2.045-2.532c.135-1.265 1.24-2.192 2.531-2.045a63.34 63.34 0 0 0 6.657.351c15.966 0 31.14-6.035 42.72-17.001a2.3 2.3 0 1 1 3.164 3.343c-12.442 11.777-28.738 18.26-45.887 18.26z"/><path id="jj4naC" d="M412.21 3997.751c-1.09 0-2.169-.023-3.245-.069a2.302 2.302 0 0 1-2.2-2.399c.051-1.271 1.122-2.275 2.399-2.2 1.007.04 2.028.063 3.046.063 19.876 0 38.321-7.96 51.945-22.416a2.295 2.295 0 0 1 3.251-.098 2.3 2.3 0 0 1 .098 3.254c-14.499 15.39-34.138 23.865-55.294 23.865z"/><path id="jj4naD" d="M439.525 4002.354a2.294 2.294 0 0 1-2.172-1.545 2.297 2.297 0 0 1 1.415-2.928c13.676-4.767 25.85-13.184 35.206-24.346a2.302 2.302 0 0 1 3.527 2.957c-9.888 11.795-22.758 20.693-37.217 25.736-.25.083-.506.126-.76.126z"/><path id="jj4naE" d="M460.755 4002.354a2.302 2.302 0 0 1-1.217-4.258 89.69 89.69 0 0 0 24.81-22.85 2.3 2.3 0 0 1 3.215-.477 2.3 2.3 0 0 1 .478 3.216 94.344 94.344 0 0 1-26.078 24.021 2.274 2.274 0 0 1-1.208.348z"/><path id="jj4naG" d="M476.517 4002.354a2.288 2.288 0 0 1-1.778-.84 2.298 2.298 0 0 1 .316-3.236 99.197 99.197 0 0 0 19.706-21.849 2.304 2.304 0 0 1 3.84 2.543 103.832 103.832 0 0 1-20.623 22.859 2.29 2.29 0 0 1-1.461.523z"/><path id="jj4naI" d="M431.453 3882.682c-7.73 0-14.623 6.26-15.362 13.952l-8.423 87.602c-.345 3.61.74 7.005 3.058 9.557 2.319 2.554 5.592 3.958 9.22 3.958h62.77c3.628 0 6.901-1.404 9.22-3.955 2.319-2.552 3.403-5.946 3.055-9.557l-8.42-87.602c-.74-7.695-7.63-13.955-15.359-13.955zm51.266 119.672h-62.773c-4.94 0-9.427-1.939-12.626-5.463-3.202-3.524-4.706-8.175-4.232-13.092l8.423-87.602c.961-9.99 9.905-18.117 19.942-18.117h39.756c10.037 0 18.98 8.126 19.942 18.117l8.423 87.6c.474 4.921-1.03 9.57-4.232 13.091-3.199 3.527-7.684 5.466-12.623 5.466z"/><path id="jj4naJ" d="M437.526 3882.682a2.297 2.297 0 0 1-2.302-2.301v-9.206a2.297 2.297 0 0 1 2.302-2.301 2.299 2.299 0 0 1 2.3 2.301v9.206a2.299 2.299 0 0 1-2.3 2.301z"/><path id="jj4naK" d="M465.142 3873.477h-27.616a2.297 2.297 0 0 1-2.302-2.302 2.297 2.297 0 0 1 2.302-2.301h27.616a2.299 2.299 0 0 1 2.302 2.301 2.299 2.299 0 0 1-2.302 2.302z"/><path id="jj4naL" d="M465.142 3882.682a2.297 2.297 0 0 1-2.301-2.301v-9.206a2.297 2.297 0 0 1 2.301-2.301 2.299 2.299 0 0 1 2.302 2.301v9.206a2.299 2.299 0 0 1-2.302 2.301z"/><path id="jj4naM" d="M471.212 3882.682h-39.76a2.299 2.299 0 0 1-2.3-2.301 2.299 2.299 0 0 1 2.3-2.301h39.757a2.297 2.297 0 0 1 2.302 2.3 2.298 2.298 0 0 1-2.299 2.302z"/><path id="jj4naN" d="M476.65 4011.56a2.297 2.297 0 0 1-2.302-2.302v-9.205a2.297 2.297 0 0 1 2.301-2.302 2.299 2.299 0 0 1 2.301 2.302v9.205a2.299 2.299 0 0 1-2.3 2.302z"/><path id="jj4naO" d="M476.65 4011.56h-50.631a2.297 2.297 0 0 1-2.302-2.302 2.297 2.297 0 0 1 2.302-2.301h50.63a2.299 2.299 0 0 1 2.301 2.301 2.299 2.299 0 0 1-2.3 2.302z"/><path id="jj4naP" d="M426.019 4011.56a2.297 2.297 0 0 1-2.302-2.302v-9.205a2.297 2.297 0 0 1 2.302-2.302 2.299 2.299 0 0 1 2.301 2.302v9.205a2.299 2.299 0 0 1-2.301 2.302z"/><clipPath id="jj4nn"><use xlink:href="#jj4na"/></clipPath><clipPath id="jj4np"><use xlink:href="#jj4na"/></clipPath><clipPath id="jj4nS"><use xlink:href="#jj4nb"/></clipPath><clipPath id="jj4nU"><use xlink:href="#jj4nb"/></clipPath><clipPath id="jj4nay"><use xlink:href="#jj4nc"/></clipPath><clipPath id="jj4naA"><use xlink:href="#jj4nc"/></clipPath><clipPath id="jj4naF"><use xlink:href="#jj4nc"/></clipPath><clipPath id="jj4naH"><use xlink:href="#jj4nc"/></clipPath></defs><g><g transform="translate(-349 -3868)"><g><use fill="#afb9d2" xlink:href="#jj4nd"/></g><g><use fill="#a1a8c6" xlink:href="#jj4ne"/></g><g><use fill="#e4eaf7" xlink:href="#jj4nf"/></g><g><use fill="#c7cfe2" xlink:href="#jj4ng"/></g><g><use fill="#afb9d2" xlink:href="#jj4nh"/></g><g><use fill="#a1a8c6" xlink:href="#jj4ni"/></g><g><use fill="#e4eaf7" xlink:href="#jj4nj"/></g><g><use fill="#c7cfe2" xlink:href="#jj4nk"/></g><g><use fill="#005c82" xlink:href="#jj4nl"/></g><g><use fill="#d7deed" xlink:href="#jj4nm"/></g><g><g><g><use xlink:href="#jj4na"/></g><g clip-path="url(#jj4nn)"><use fill="#005c82" xlink:href="#jj4no"/></g></g><g><g><use xlink:href="#jj4na"/></g><g clip-path="url(#jj4np)"><use xlink:href="#jj4nq"/></g></g></g><g><use xlink:href="#jj4nr"/></g></g><g transform="translate(-349 -3868)"><g><use fill="#e6e9ed" xlink:href="#jj4ns"/></g><g><use fill="#329aba" xlink:href="#jj4nt"/></g><g><use fill="#329aba" xlink:href="#jj4nu"/></g><g><use fill="#1a7084" xlink:href="#jj4nv"/></g><g><use fill="#1a7084" xlink:href="#jj4nw"/></g><g><use fill="#e6e9ed" xlink:href="#jj4nx"/></g><g><use fill="#ccd1d9" xlink:href="#jj4ny"/></g><g><use fill="#ccd1d9" xlink:href="#jj4nz"/></g><g><use xlink:href="#jj4nA"/></g><g><use xlink:href="#jj4nB"/></g><g><use xlink:href="#jj4nC"/></g><g><use xlink:href="#jj4nD"/></g><g><use xlink:href="#jj4nE"/></g><g><use xlink:href="#jj4nF"/></g><g><use xlink:href="#jj4nG"/></g><g><use xlink:href="#jj4nH"/></g><g><use xlink:href="#jj4nI"/></g><g><use xlink:href="#jj4nJ"/></g><g><use xlink:href="#jj4nK"/></g><g><use xlink:href="#jj4nL"/></g><g><use xlink:href="#jj4nM"/></g><g><use xlink:href="#jj4nN"/></g><g><use xlink:href="#jj4nO"/></g><g/><g><use xlink:href="#jj4nP"/></g><g><use xlink:href="#jj4nQ"/></g><g><use xlink:href="#jj4nR"/></g><g><g><g><use xlink:href="#jj4nb"/></g><g clip-path="url(#jj4nS)"><use xlink:href="#jj4nT"/></g></g><g><g><use xlink:href="#jj4nb"/></g><g clip-path="url(#jj4nU)"><use xlink:href="#jj4nV"/></g></g></g><g><use xlink:href="#jj4nW"/></g><g><use xlink:href="#jj4nX"/></g><g><use xlink:href="#jj4nY"/></g><g><use xlink:href="#jj4nZ"/></g><g><use xlink:href="#jj4naa"/></g><g><use xlink:href="#jj4nab"/></g><g><use xlink:href="#jj4nac"/></g></g><g transform="translate(-349 -3868)"><g><use fill="#e6e9ed" xlink:href="#jj4nad"/></g><g><use fill="#8cc152" xlink:href="#jj4nae"/></g><g><use fill="#a0d468" xlink:href="#jj4naf"/></g><g><use fill="#8cc152" xlink:href="#jj4nag"/></g><g><use fill="#7daf3c" xlink:href="#jj4nah"/></g><g><use fill="#e6e9ed" xlink:href="#jj4nai"/></g><g><use fill="#ccd1d9" xlink:href="#jj4naj"/></g><g><use fill="#ccd1d9" xlink:href="#jj4nak"/></g><g><use xlink:href="#jj4nal"/></g><g><use xlink:href="#jj4nam"/></g><g><use xlink:href="#jj4nan"/></g><g><use xlink:href="#jj4nao"/></g><g><use xlink:href="#jj4nap"/></g><g><use xlink:href="#jj4naq"/></g><g><use xlink:href="#jj4nar"/></g><g><use xlink:href="#jj4nas"/></g><g><use xlink:href="#jj4nat"/></g><g><use xlink:href="#jj4nau"/></g><g><use xlink:href="#jj4nav"/></g><g><use xlink:href="#jj4naw"/></g><g><use xlink:href="#jj4nax"/></g><g><g><g><use xlink:href="#jj4nc"/></g><g clip-path="url(#jj4nay)"><use xlink:href="#jj4naz"/></g></g><g><g><use xlink:href="#jj4nc"/></g><g clip-path="url(#jj4naA)"><use xlink:href="#jj4naB"/></g></g></g><g><use xlink:href="#jj4naC"/></g><g><use xlink:href="#jj4naD"/></g><g><use xlink:href="#jj4naE"/></g><g><g><g><use xlink:href="#jj4nc"/></g><g clip-path="url(#jj4naF)"><use xlink:href="#jj4naG"/></g></g><g><g><use xlink:href="#jj4nc"/></g><g clip-path="url(#jj4naH)"><use xlink:href="#jj4naI"/></g></g></g><g><use xlink:href="#jj4naJ"/></g><g><use xlink:href="#jj4naK"/></g><g><use xlink:href="#jj4naL"/></g><g><use xlink:href="#jj4naM"/></g><g><use xlink:href="#jj4naN"/></g><g><use xlink:href="#jj4naO"/></g><g><use xlink:href="#jj4naP"/></g></g></g></svg>