<svg xmlns="http://www.w3.org/2000/svg" xmlns:xlink="http://www.w3.org/1999/xlink" width="113" height="113" viewBox="0 0 113 113"><defs><path id="ur5nb" d="M1492.123 4011.534h-93.825a1.88 1.88 0 0 1 0-3.757h93.825a1.88 1.88 0 0 1 0 3.757z"/><path id="ur5nc" d="M1390.892 4011.534h-7.627a1.88 1.88 0 0 1 0-3.757h7.627a1.88 1.88 0 0 1 0 3.757z"/><path id="ur5nd" d="M1492.116 4009.655l-18.62-7.271-15.07-5.883-7.667-7.666 20.5-20.837 7.837 7.833 5.826 15.127z"/><path id="ur5ne" d="M1479.096 3975.831l-11.885-1.62.064 10.594-10.594-.061 1.747 11.757-60.13-60.127 20.668-20.668z"/><path id="ur5nf" d="M1492.116 4009.655l-18.62-7.271 11.423-11.424z"/><path id="ur5ng" d="M1390.781 3928.858l20.668-20.668 7.517 7.516-20.668 20.668z"/><path id="ur5na" d="M1381.387 4011.56v-112.38H1494v112.38z"/><path id="ur5ni" d="M1398.298 3936.374l20.668-20.668 7.516 7.516-20.668 20.668z"/><path id="ur5nk" d="M1411.327 3908.312l-20.546 20.546s-13.14-8.934-3.801-18.743l5.602-5.602c8.99-9.343 18.745 3.799 18.745 3.799z"/><path id="ur5nl" d="M1452.79 3979.59c-.498 0-.976-.197-1.328-.55l-39.46-39.46a1.879 1.879 0 0 1 2.657-2.658l39.457 39.46c.538.538.698 1.344.407 2.047a1.873 1.873 0 0 1-1.733 1.161z"/><path id="ur5nm" d="M1449.03 3960.799c-.498 0-.975-.198-1.328-.55l-28.184-28.185a1.876 1.876 0 0 1 .024-2.633 1.88 1.88 0 0 1 2.633-.023l28.184 28.186c.538.539.698 1.345.407 2.046a1.875 1.875 0 0 1-1.735 1.159z"/><path id="ur5nn" d="M1469.701 3955.163c-.498 0-.976-.197-1.328-.55l-28.187-28.186a1.878 1.878 0 1 1 2.657-2.657l28.184 28.184a1.88 1.88 0 0 1-1.326 3.21z"/><path id="ur5np" d="M1475.336 3949.525c-.498 0-.975-.197-1.328-.55l-15.032-15.032a1.878 1.878 0 0 1 2.656-2.657l15.033 15.033a1.88 1.88 0 0 1-1.329 3.206z"/><path id="ur5nr" d="M1467.463 3972.35a1.88 1.88 0 0 0-2.132 1.878l.046 8.687-8.694-.052a1.836 1.836 0 0 0-1.431.649 1.87 1.87 0 0 0-.44 1.502l.91 6.127-47.254-47.256 3.92-3.919 39.069 39.07a1.878 1.878 0 0 0 2.657-2.657l-39.068-39.067 4.86-4.86 27.796 27.797a1.878 1.878 0 0 0 2.657-2.657l-27.796-27.796 3.919-3.92 47.34 47.34zm9.397 29.328l7.347-7.347 4.631 12.026zm-7.756-25.313l8.645 1.178 4.981 12.945-9.693 9.693-12.919-5.034-1.26-8.51 8.405.049c.498-.014.976-.21 1.34-.55a1.88 1.88 0 0 0 .55-1.34zm-68.15-39.991l18.012-18.011 4.86 4.86-18.012 18.01zm10.498-25.53l4.86 4.86-18.014 18.013-4.86-4.86zm-25.906 7.4a8.429 8.429 0 0 1 2.762-6.8l5.638-5.638a7.807 7.807 0 0 1 5.666-2.77c.141 0 .282 0 .428.017 3.707.23 7.088 3.364 8.73 5.153l-18.141 18.148c-1.726-1.48-4.707-4.519-5.083-8.109zm27.234-11.385c-.13-.13-6.651-7.187-12.482-7.559a11.351 11.351 0 0 0-9.042 3.882l-5.637 5.638a12.12 12.12 0 0 0-3.807 9.836c.677 6.339 6.722 10.9 7.763 11.65l67.522 67.521c.186.181.407.325.649.417l24.397 9.528h-83.845a1.88 1.88 0 0 0 0 3.757h93.825a1.849 1.849 0 0 0 1.688-1.086 1.63 1.63 0 0 0 .066-.179c.058-.162.091-.331.103-.503 0-.037.012-.145.012-.167a1.93 1.93 0 0 0-.113-.62l-13.025-33.822a3.468 3.468 0 0 0-.425-.654z"/><path id="ur5ns" d="M1383.265 4011.534h7.627a1.88 1.88 0 0 0 0-3.757h-7.627a1.88 1.88 0 0 0 0 3.757z"/><path id="ur5nt" d="M1440.186 3923.77a1.879 1.879 0 0 0 0 2.657l28.184 28.186a1.879 1.879 0 1 0 2.657-2.659l-28.184-28.184a1.879 1.879 0 0 0-2.657 0z"/><path id="ur5nu" d="M1475.336 3949.525a1.88 1.88 0 0 0 1.329-3.209l-15.033-15.032a1.878 1.878 0 1 0-2.657 2.657l15.033 15.032c.353.355.83.552 1.328.552z"/><clipPath id="ur5nh"><use xlink:href="#ur5na"/></clipPath><clipPath id="ur5nj"><use xlink:href="#ur5na"/></clipPath><clipPath id="ur5no"><use xlink:href="#ur5na"/></clipPath><clipPath id="ur5nq"><use xlink:href="#ur5na"/></clipPath></defs><g><g transform="translate(-1381 -3899)"><g><use fill="#7d8d9c" xlink:href="#ur5nb"/></g><g><use fill="#7d8d9c" xlink:href="#ur5nc"/></g><g><use fill="#d3843d" xlink:href="#ur5nd"/></g><g><use fill="#776d62" xlink:href="#ur5ne"/></g><g><use fill="#5a6470" xlink:href="#ur5nf"/></g><g><use fill="#7d8ea0" xlink:href="#ur5ng"/></g><g><g><g><use xlink:href="#ur5na"/></g><g clip-path="url(#ur5nh)"><use fill="#5a6470" xlink:href="#ur5ni"/></g></g><g><g><use xlink:href="#ur5na"/></g><g clip-path="url(#ur5nj)"><use fill="#cfdfe8" xlink:href="#ur5nk"/></g></g></g><g><use fill="#ffd782" xlink:href="#ur5nl"/></g><g><use fill="#ffd782" xlink:href="#ur5nm"/></g><g><use fill="#7d8d9c" xlink:href="#ur5nn"/></g><g><g><g><use xlink:href="#ur5na"/></g><g clip-path="url(#ur5no)"><use fill="#7d8d9c" xlink:href="#ur5np"/></g></g><g><g><use xlink:href="#ur5na"/></g><g clip-path="url(#ur5nq)"><use xlink:href="#ur5nr"/></g></g></g><g><use xlink:href="#ur5ns"/></g><g><use xlink:href="#ur5nt"/></g><g><use xlink:href="#ur5nu"/></g></g></g></svg>