<svg xmlns="http://www.w3.org/2000/svg" xmlns:xlink="http://www.w3.org/1999/xlink" width="117" height="152" viewBox="0 0 117 152"><defs><path id="2c3ya" d="M784.547 3864.277v92.3c0 5.808 4.71 10.518 10.518 10.518 5.809 0 10.519-4.71 10.519-10.519v-15.027c0-5.808 4.71-10.519 10.518-10.519 5.809 0 10.519 4.71 10.519 10.52v49.416c0 5.809 4.71 10.52 10.519 10.52 5.808 0 10.518-4.711 10.518-10.52v-126.689a2.963 2.963 0 0 0-2.962-2.962H787.51a2.963 2.963 0 0 0-2.962 2.962z"/><path id="2c3yb" d="M844.696 3861.315a2.963 2.963 0 0 1 2.962 2.962v126.69a10.48 10.48 0 0 1-3.08 7.437 10.485 10.485 0 0 1-7.435 3.081c-1.093 0-2.15-.166-3.138-.478a10.562 10.562 0 0 0 4.304-2.603 10.48 10.48 0 0 0 3.08-7.438v-129.651z"/><path id="2c3yc" d="M794.157 3930.832l-44.283-44.283 31.176-31.179a3.79 3.79 0 0 1 5.357 0l38.929 38.925a3.79 3.79 0 0 1 0 5.358z"/><path id="2c3yd" d="M825.333 3899.656l-31.176 31.176-4.399-4.399 31.18-31.176a3.788 3.788 0 0 0 .044-5.31l4.35 4.351a3.785 3.785 0 0 1 0 5.358z"/><path id="2c3ye" d="M779.358 3944.395l-43.048-43.048a3.785 3.785 0 0 1 0-5.357l11.786-11.786a3.79 3.79 0 0 1 5.358 0l43.048 43.051a3.785 3.785 0 0 1 0 5.357l-11.786 11.786a3.788 3.788 0 0 1-5.358-.003z"/><path id="2c3yf" d="M844.696 3859.095h-17.291a2.22 2.22 0 0 0 0 4.44h17.291c.41 0 .742.332.742.742v87.049a2.22 2.22 0 0 0 4.44 0v-87.049a5.187 5.187 0 0 0-5.182-5.182z"/><path id="2c3yg" d="M783.146 3942.825c-.297.297-.689.46-1.107.46-.419 0-.81-.163-1.108-.46l-43.05-43.05a1.566 1.566 0 0 1 0-2.215l11.788-11.786c.297-.297.689-.46 1.108-.46.418 0 .813.163 1.11.46l43.048 43.048a1.566 1.566 0 0 1 0 2.214zm-.523-85.882a1.566 1.566 0 0 1 2.214 0l38.926 38.925a1.566 1.566 0 0 1 0 2.215l-26.641 26.64-10.391-10.394 4.5-4.499a2.221 2.221 0 1 0-3.14-3.143l-4.503 4.502-15.734-15.736 4.503-4.5a2.225 2.225 0 0 0 0-3.143 2.225 2.225 0 0 0-3.143 0l-4.503 4.503-2.395-2.395 17.72-17.72a2.225 2.225 0 0 0 0-3.143 2.22 2.22 0 0 0-3.144 0l-17.719 17.72-3.19-3.194zm65.032 101.835c-1.226 0-2.22.995-2.22 2.223v29.968c0 4.574-3.722 8.299-8.295 8.299-4.577 0-8.296-3.722-8.296-8.299v-49.417c0-7.025-5.716-12.739-12.742-12.739-7.025 0-12.738 5.714-12.738 12.74v15.026c0 4.574-3.722 8.296-8.296 8.296-4.577 0-8.298-3.722-8.298-8.296v-11.088l11.308-11.311a6 6 0 0 0 1.573-5.699l27.255-27.255c2.342-2.345 2.342-6.159 0-8.5l-29.19-29.188h20.013a2.22 2.22 0 0 0 0-4.44h-24.457l-5.292-5.298a6.015 6.015 0 0 0-8.5 0l-27.252 27.252a5.98 5.98 0 0 0-5.702 1.576l-11.789 11.79a6.015 6.015 0 0 0 0 8.5l43.051 43.047a5.962 5.962 0 0 0 4.25 1.76c.096 0 .19-.008.285-.014v8.865c0 7.025 5.717 12.742 12.742 12.742 7.025 0 12.739-5.717 12.739-12.742v-15.027c0-4.574 3.722-8.295 8.298-8.295 4.577 0 8.296 3.721 8.296 8.295v49.417c0 7.026 5.716 12.742 12.742 12.742 7.025 0 12.741-5.716 12.741-12.742v-29.968a2.226 2.226 0 0 0-2.226-2.22z"/><path id="2c3yh" d="M753.376 3903.829a2.225 2.225 0 0 0-3.143 0 2.225 2.225 0 0 0 0 3.143l23.504 23.503c.433.434 1.003.65 1.57.65a2.22 2.22 0 0 0 1.57-3.793z"/><path id="2c3yi" d="M835.056 3906.037h-.024a2.21 2.21 0 0 0-2.208 2.223 2.229 2.229 0 0 0 4.455 0 2.222 2.222 0 0 0-2.223-2.223z"/><path id="2c3yj" d="M836.887 3912.11a2.211 2.211 0 0 0-2.181 2.25 2.231 2.231 0 0 0 2.232 2.193h.03a2.22 2.22 0 1 0-.027-4.443h-.027z"/><path id="2c3yk" d="M823.098 3918.954a2.214 2.214 0 0 0-2.211 2.223 2.23 2.23 0 0 0 2.232 2.22 2.221 2.221 0 1 0 0-4.443z"/></defs><g><g transform="translate(-733 -3852)"><g><use fill="#c6db4b" xlink:href="#2c3ya"/></g><g><use fill="#a8b523" xlink:href="#2c3yb"/></g><g><use fill="#7d8ea0" xlink:href="#2c3yc"/></g><g><use fill="#5a6470" xlink:href="#2c3yd"/></g><g><use fill="#776d62" xlink:href="#2c3ye"/></g><g><use xlink:href="#2c3yf"/></g><g><use xlink:href="#2c3yg"/></g><g/><g/><g><use xlink:href="#2c3yh"/></g><g><use xlink:href="#2c3yi"/></g><g><use xlink:href="#2c3yj"/></g><g><use xlink:href="#2c3yk"/></g></g></g></svg>